<svg viewBox="0 0 58 36" fill="none" xmlns="http://www.w3.org/2000/svg"><g clip-path="url(#clip0_16807_91211)"><ellipse cx="39.8919" cy="18" rx="17.5135" ry="18" fill="#63C9C3"></ellipse><path d="M46.8079 16.8961L44.1873 18.0842L37.2353 21.6823L44.1873 25.0811V19.4632L46.8079 18.2624V26.5619L44.1873 27.75L33.9512 22.7686V20.1209L41.0368 16.5864L33.9512 13.124V10.4381L36.6135 9.25L46.8079 14.2399V16.8961Z" fill="#A6FFEF"></path><path d="M33.9512 10.4381L44.1873 15.428L46.8079 14.2399L36.6135 9.25L33.9512 10.4381Z" fill="#EAFFFB"></path><path d="M44.1865 15.4185L46.8071 14.2305V16.8867L44.1865 18.0747V15.4185Z" fill="white"></path><path d="M44.1865 27.7308L46.8071 26.5427V18.2432L44.1865 19.444V27.7308Z" fill="white"></path></g><circle cx="18" cy="18" r="18" fill="#00A954"></circle><path opacity="0.6" d="M17.8275 15.3184L11 18.4577L17.8275 22.5398L24.6564 18.4577L17.8275 15.3184Z" fill="white"></path><path opacity="0.45" d="M11.0039 18.4583L17.8315 22.5405V15.319V7L11.0039 18.4583Z" fill="white"></path><path opacity="0.8" d="M17.8296 7V15.319V22.5405L24.6571 18.4583L17.8296 7Z" fill="white"></path><path opacity="0.45" d="M11 19.7676L17.8275 29.4989V23.8471L11 19.7676Z" fill="white"></path><path opacity="0.8" d="M17.8281 23.8471V29.4989L24.6607 19.7676L17.8281 23.8471Z" fill="white"></path><defs><clipPath id="clip0_16807_91211"><rect width="36" height="36" fill="white" transform="translate(22)"></rect></clipPath></defs></svg>