<?xml version="1.0" encoding="UTF-8"?>
<svg width="797px" height="184px" viewBox="0 0 797 184" version="1.1" xmlns="http://www.w3.org/2000/svg" xmlns:xlink="http://www.w3.org/1999/xlink">
    <!-- Generator: Sketch 39.1 (31720) - http://www.bohemiancoding.com/sketch -->
    <title>Slice 1</title>
    <desc>Created with Sketch.</desc>
    <defs>
        <polygon id="path-1" points="0 182.163265 796.325359 182.163265 796.325359 0.77395918 0 0.77395918"></polygon>
        <polygon id="path-3" points="0 182.163265 796.325359 182.163265 796.325359 0.77395918 0 0.77395918"></polygon>
        <polygon id="path-5" points="0 182.163265 796.325359 182.163265 796.325359 0.77395918 0 0.77395918"></polygon>
        <polygon id="path-7" points="0 182.163265 796.325359 182.163265 796.325359 0.77395918 0 0.77395918"></polygon>
        <polygon id="path-9" points="0 182.163265 796.325359 182.163265 796.325359 0.77395918 0 0.77395918"></polygon>
        <polygon id="path-11" points="0 182.163265 796.325359 182.163265 796.325359 0.77395918 0 0.77395918"></polygon>
    </defs>
    <g id="Page-1" stroke="none" stroke-width="1" fill="none" fill-rule="evenodd">
        <g id="normal_1024">
            <g id="Page-1">
                <g>
                    <g id="normal_1024">
                        <g id="Page-1">
                            <polygon id="Fill-1" fill="#1E2087" points="0 121.764473 120.643062 121.764473 120.643062 0.83826939 0 0.83826939"></polygon>
                            <polygon id="Fill-2" fill="#2EA7DF" points="60.3215311 182.227576 180.968421 182.227576 180.968421 61.3013714 60.3215311 61.3013714"></polygon>
                            <polygon id="Fill-3" fill="#066EB7" points="60.3215311 121.764473 120.643062 121.764473 120.643062 61.3013714 60.3215311 61.3013714"></polygon>
                            <g id="Group-15" transform="translate(0.000000, 0.064310)">
                                <path d="M675.693397,40.8570939 C675.693397,48.7147265 669.343158,55.0837061 661.503923,55.0837061 C653.664689,55.0837061 647.310622,48.7147265 647.310622,40.8570939 C647.310622,33.003298 653.664689,26.6304816 661.503923,26.6304816 C669.343158,26.6304816 675.693397,33.003298 675.693397,40.8570939 L675.693397,40.8570939 Z M648.305837,156.300604 L674.946986,156.300604 L674.946986,62.1356245 L648.305837,62.1356245 L648.305837,156.300604 L648.305837,156.300604 Z" id="Fill-4" fill="#2EA7DF"></path>
                                <path d="M698.891483,62.1371592 L725.532632,62.1371592 L725.532632,75.5964245 C727.044593,73.593649 728.713493,71.6752816 730.527847,69.8489959 C732.334545,68.0227102 734.355598,66.3997714 736.575694,64.9840163 C738.791962,63.5682612 741.241722,62.4479347 743.936459,61.6192 C746.623541,60.794302 749.658947,60.3799347 753.046507,60.3799347 C763.216842,60.3799347 771.071388,63.4876898 776.625455,69.6916898 C782.171866,75.8995265 784.946986,84.4477714 784.946986,95.344098 L784.946986,156.302139 L758.305837,156.302139 L758.305837,103.903853 C758.305837,97.5962612 756.901053,92.8310367 754.102967,89.6235265 C751.293397,86.4083429 747.320191,84.800751 742.183349,84.800751 C737.038852,84.800751 732.981435,86.4083429 729.999617,89.6235265 C727.021627,92.8310367 725.532632,97.5962612 725.532632,103.903853 L725.532632,156.302139 L698.891483,156.302139 L698.891483,62.1371592 L698.891483,62.1371592 Z" id="Fill-6" fill="#2EA7DF"></path>
                                <g id="Fill-8-Clipped">
                                    <mask id="mask-2" fill="white">
                                        <use xlink:href="#path-1"></use>
                                    </mask>
                                    <g id="path-1"></g>
                                    <polygon id="Fill-8" fill="#2EA7DF" mask="url(#mask-2)" points="674.943541 156.303673 686.319617 156.303673 686.319617 144.900898 674.943541 144.900898"></polygon>
                                </g>
                                <g id="Fill-10-Clipped">
                                    <mask id="mask-4" fill="white">
                                        <use xlink:href="#path-3"></use>
                                    </mask>
                                    <g id="path-1"></g>
                                    <polygon id="Fill-10" fill="#2EA7DF" mask="url(#mask-4)" points="784.949282 156.303673 796.325359 156.303673 796.325359 144.900898 784.949282 144.900898"></polygon>
                                </g>
                                <g id="Fill-11-Clipped">
                                    <mask id="mask-6" fill="white">
                                        <use xlink:href="#path-5"></use>
                                    </mask>
                                    <g id="path-1"></g>
                                    <path d="M408.475789,133.379184 C412.318852,133.379184 415.72555,132.707755 418.692057,131.364898 C421.658565,130.025878 424.188708,128.188082 426.286316,125.855347 C428.380096,123.522612 429.980096,120.810041 431.086316,117.713796 C432.192536,114.625224 432.74756,111.325633 432.74756,107.826531 L432.74756,107.477388 C432.74756,103.978286 432.161914,100.682531 431.002105,97.5901224 C429.834641,94.501551 428.146603,91.7582857 425.93799,89.3641633 C423.721722,86.9738776 421.107368,85.0785306 418.079617,83.6781224 C415.051866,82.2777143 411.737033,81.5794286 408.127464,81.5794286 C404.28823,81.5794286 400.885359,82.2508571 397.915024,83.5898776 C394.948517,84.9327347 392.414545,86.7705306 390.320766,89.1032653 C388.223158,91.436 386.623158,94.1485714 385.516938,97.2409796 C384.410718,100.333388 383.859522,103.629143 383.859522,107.128245 L383.859522,107.477388 C383.859522,110.980327 384.44134,114.276082 385.604976,117.364653 C386.768612,120.457061 388.456651,123.200327 390.669091,125.590612 C392.877703,127.984735 395.472919,129.876245 398.439426,131.28049 C401.405933,132.677061 404.751388,133.379184 408.475789,133.379184 M408.127464,156.303673 C400.908325,156.303673 394.217416,155.049061 388.050909,152.543673 C381.880574,150.034449 376.552344,146.589061 372.073876,142.215184 C367.591579,137.841306 364.070048,132.707755 361.509282,126.818367 C358.952344,120.925143 357.673876,114.594531 357.673876,107.826531 L357.673876,107.477388 C357.673876,100.713224 358.952344,94.3826122 361.509282,88.4893878 C364.070048,82.6 367.622201,77.4357551 372.161914,73.0043265 C376.701627,68.5690612 382.056651,65.0699592 388.223158,62.5031837 C394.393493,59.9364082 401.145646,58.651102 408.475789,58.651102 C415.694928,58.651102 422.385837,59.909551 428.556172,62.4149388 C434.722679,64.9241633 440.047081,68.3657143 444.533206,72.7395918 C449.011675,77.1134694 452.533206,82.2508571 455.093971,88.1402449 C457.654737,94.0334694 458.937033,100.364082 458.937033,107.128245 L458.937033,107.477388 C458.937033,114.245388 457.654737,120.576 455.093971,126.465388 C452.533206,132.358612 448.98488,137.522857 444.44134,141.954286 C439.905455,146.389551 434.550431,149.888653 428.380096,152.455429 C422.209761,155.018367 415.461435,156.303673 408.127464,156.303673" id="Fill-11" fill="#231916" mask="url(#mask-6)"></path>
                                </g>
                                <g id="Fill-12-Clipped">
                                    <mask id="mask-8" fill="white">
                                        <use xlink:href="#path-7"></use>
                                    </mask>
                                    <g id="path-1"></g>
                                    <path d="M522.310431,133.379184 C526.153493,133.379184 529.560191,132.707755 532.526699,131.364898 C535.493206,130.025878 538.023349,128.188082 540.120957,125.855347 C542.214737,123.522612 543.814737,120.810041 544.920957,117.713796 C546.027177,114.625224 546.582201,111.325633 546.582201,107.826531 L546.582201,107.477388 C546.582201,103.978286 545.996555,100.682531 544.836746,97.5901224 C543.669282,94.501551 541.981244,91.7582857 539.772632,89.3641633 C537.556364,86.9738776 534.94201,85.0785306 531.914258,83.6781224 C528.886507,82.2777143 525.571675,81.5794286 521.962105,81.5794286 C518.122871,81.5794286 514.72,82.2508571 511.749665,83.5898776 C508.783158,84.9327347 506.249187,86.7705306 504.155407,89.1032653 C502.057799,91.436 500.457799,94.1485714 499.351579,97.2409796 C498.245359,100.333388 497.694163,103.629143 497.694163,107.128245 L497.694163,107.477388 C497.694163,110.980327 498.275981,114.276082 499.439617,117.364653 C500.603254,120.457061 502.291292,123.200327 504.503732,125.590612 C506.712344,127.984735 509.30756,129.876245 512.274067,131.28049 C515.240574,132.677061 518.586029,133.379184 522.310431,133.379184 M521.962105,156.303673 C514.742967,156.303673 508.052057,155.049061 501.88555,152.543673 C495.715215,150.034449 490.386986,146.589061 485.908517,142.215184 C481.42622,137.841306 477.904689,132.707755 475.343923,126.818367 C472.786986,120.925143 471.508517,114.594531 471.508517,107.826531 L471.508517,107.477388 C471.508517,100.713224 472.786986,94.3826122 475.343923,88.4893878 C477.904689,82.6 481.456842,77.4357551 485.996555,73.0043265 C490.536268,68.5690612 495.891292,65.0699592 502.057799,62.5031837 C508.228134,59.9364082 514.980287,58.651102 522.310431,58.651102 C529.529569,58.651102 536.220478,59.909551 542.390813,62.4149388 C548.557321,64.9241633 553.881722,68.3657143 558.367847,72.7395918 C562.846316,77.1134694 566.367847,82.2508571 568.928612,88.1402449 C571.489378,94.0334694 572.771675,100.364082 572.771675,107.128245 L572.771675,107.477388 C572.771675,114.245388 571.489378,120.576 568.928612,126.465388 C566.367847,132.358612 562.819522,137.522857 558.275981,141.954286 C553.740096,146.389551 548.385072,149.888653 542.214737,152.455429 C536.044402,155.018367 529.296077,156.303673 521.962105,156.303673" id="Fill-12" fill="#231916" mask="url(#mask-8)"></path>
                                </g>
                                <g id="Fill-13-Clipped">
                                    <mask id="mask-10" fill="white">
                                        <use xlink:href="#path-9"></use>
                                    </mask>
                                    <g id="path-1"></g>
                                    <path d="M317.865646,77.0271429 C317.865646,82.2796327 316.001531,86.6842041 312.277129,90.2408571 C308.5489,93.8013469 303.312536,95.5777551 296.568038,95.5777551 L275.262775,95.5777551 L275.262775,58.1273878 L296.039809,58.1273878 C302.791962,58.1273878 308.116364,59.700449 312.016842,62.8542449 C315.913493,66.0003673 317.865646,70.6121224 317.865646,76.678 L317.865646,77.0271429 L317.865646,77.0271429 Z M341.869474,58.9139184 C339.718278,53.7266531 336.63311,49.2645306 332.617799,45.527551 C328.602488,41.7944082 323.71445,38.9053469 317.949856,36.8642041 C312.192919,34.8230612 305.643636,33.8024898 298.313493,33.8024898 L248.376651,33.8024898 L248.376651,144.89898 L237.000574,144.89898 L237.000574,156.305592 L248.376651,156.305592 L275.262775,156.305592 L275.262775,119.55351 L295.691483,119.55351 C302.558469,119.55351 308.989091,118.651878 314.983349,116.840939 C320.977608,115.033837 326.217799,112.321265 330.700096,108.703224 C335.174737,105.08902 338.696268,100.596204 341.260861,95.2286122 C343.817799,89.8648571 345.100096,83.6186531 345.100096,76.5015102 L345.100096,76.1523673 C345.100096,69.852449 344.024498,64.1088571 341.869474,58.9139184 L341.869474,58.9139184 L341.869474,58.9139184 Z" id="Fill-13" fill="#231916" mask="url(#mask-10)"></path>
                                </g>
                                <g id="Fill-14-Clipped">
                                    <mask id="mask-12" fill="white">
                                        <use xlink:href="#path-11"></use>
                                    </mask>
                                    <g id="path-1"></g>
                                    <polygon id="Fill-14" fill="#231916" mask="url(#mask-12)" points="596.715789 28.5526857 596.715789 144.901665 585.339713 144.901665 585.339713 156.304441 596.715789 156.304441 623.257416 156.304441 623.257416 28.5526857"></polygon>
                                </g>
                            </g>
                        </g>
                    </g>
                </g>
            </g>
        </g>
    </g>
</svg>