<?xml version="1.0" standalone="no"?><!DOCTYPE svg PUBLIC "-//W3C//DTD SVG 1.1//EN" "http://www.w3.org/Graphics/SVG/1.1/DTD/svg11.dtd"><svg t="1678371853424" class="icon" viewBox="0 0 1024 1024" version="1.1" xmlns="http://www.w3.org/2000/svg" p-id="5180" xmlns:xlink="http://www.w3.org/1999/xlink" width="32" height="32"><path d="M512 928.229c-211.616 0-384.211-172.595-384.211-384.211 0-121.567 56.031-233.628 153.584-306.668 28.516-21.512 68.538-16.009 89.549 12.507 21.512 28.016 15.509 68.538-12.507 89.549-65.036 49.027-102.556 123.568-102.556 204.612 0 141.077 115.063 256.141 256.141 256.141 141.077 0 256.141-115.063 256.141-256.141 0-81.044-37.521-155.585-102.557-204.612-28.015-21.012-34.019-61.534-12.507-89.549 21.012-28.516 61.534-34.019 89.55-12.507 97.553 73.04 153.584 185.102 153.584 306.668C896.211 755.634 723.616 928.229 512 928.229zM576.035 479.982c0 35.02-29.016 64.035-64.035 64.035-35.019 0-64.035-29.016-64.035-64.035L447.965 159.807c0-35.019 29.016-64.035 64.035-64.035 35.02 0 64.035 29.016 64.035 64.035L576.035 479.982z" p-id="5181" fill="#ff1d00"></path></svg>