<?xml version="1.0" standalone="no"?><!DOCTYPE svg PUBLIC "-//W3C//DTD SVG 1.1//EN" "http://www.w3.org/Graphics/SVG/1.1/DTD/svg11.dtd"><svg t="1678371747349" class="icon" viewBox="0 0 1024 1024" version="1.1" xmlns="http://www.w3.org/2000/svg" p-id="4133" xmlns:xlink="http://www.w3.org/1999/xlink" width="32" height="32"><path d="M772.096 130.048c-5.12-27.648-24.576-49.152-50.176-54.272C652.288 59.392 584.704 51.2 522.24 51.2c-68.608 0-139.264 8.192-208.896 23.552-27.648 6.144-48.128 28.672-50.176 55.296C244.736 260.096 235.52 388.096 235.52 512s9.216 251.904 26.624 381.952c4.096 27.648 24.576 49.152 50.176 54.272C382.976 964.608 453.632 972.8 522.24 972.8c62.464 0 130.048-8.192 198.656-23.552 26.624-6.144 46.08-27.648 50.176-55.296C789.504 763.904 798.72 635.904 798.72 512s-9.216-251.904-26.624-381.952z m-468.992 5.12c1.024-9.216 9.216-18.432 18.432-20.48C389.12 100.352 456.704 92.16 522.24 92.16c59.392 0 123.904 8.192 190.464 23.552 10.24 2.048 17.408 10.24 19.456 20.48C748.544 264.192 757.76 390.144 757.76 512c0 57.344-2.048 116.736-6.144 176.128C675.84 700.416 596.992 706.56 517.12 706.56s-158.72-6.144-234.496-18.432c-4.096-59.392-6.144-118.784-6.144-176.128 0-121.856 9.216-247.808 26.624-376.832z m408.576 774.144C646.144 923.648 581.632 931.84 522.24 931.84c-65.536 0-133.12-8.192-200.704-23.552-10.24-2.048-17.408-10.24-19.456-20.48-7.168-53.248-13.312-105.472-17.408-157.696 74.752 11.264 152.576 17.408 231.424 17.408s156.672-6.144 231.424-17.408c-4.096 52.224-10.24 104.448-17.408 156.672 0 11.264-8.192 19.456-18.432 22.528zM419.84 151.552c-2.048-11.264 6.144-21.504 17.408-23.552 23.552-3.072 48.128-5.12 74.752-5.12 25.6 0 51.2 2.048 83.968 5.12 11.264 1.024 19.456 11.264 18.432 22.528-1.024 11.264-11.264 19.456-22.528 18.432-30.72-3.072-55.296-5.12-79.872-5.12-24.576 0-47.104 2.048-68.608 5.12H440.32c-10.24 0-18.432-7.168-20.48-17.408zM517.12 778.24c-33.792 0-61.44 27.648-61.44 61.44s27.648 61.44 61.44 61.44 61.44-27.648 61.44-61.44-27.648-61.44-61.44-61.44z m0 81.92c-11.264 0-20.48-9.216-20.48-20.48s9.216-20.48 20.48-20.48 20.48 9.216 20.48 20.48-9.216 20.48-20.48 20.48z" p-id="4134" fill="#696cff"></path></svg>