<?xml version="1.0" standalone="no"?><!DOCTYPE svg PUBLIC "-//W3C//DTD SVG 1.1//EN" "http://www.w3.org/Graphics/SVG/1.1/DTD/svg11.dtd"><svg t="1678419354933" class="icon" viewBox="0 0 1024 1024" version="1.1" xmlns="http://www.w3.org/2000/svg" p-id="2790" xmlns:xlink="http://www.w3.org/1999/xlink" width="32" height="32"><path d="M512 0a512 512 0 1 0 512 512A512 512 0 0 0 512 0z m0 987.428571a475.428571 475.428571 0 1 1 475.428571-475.428571 475.428571 475.428571 0 0 1-475.428571 475.428571z" fill="#696cff" p-id="2791"></path><path d="M731.428571 265.142857L211.382857 475.428571c-36.571429 14.994286-36.571429 36.571429-6.582857 43.885715l133.12 44.251428 307.931429-202.971428c14.262857-9.142857 27.794286-4.022857 16.822857 6.582857l-249.417143 234.057143-9.142857 143.36a36.571429 36.571429 0 0 0 27.062857-14.262857l64.365714-65.462858L630.125714 768c24.502857 14.262857 42.422857 6.582857 48.64-24.137143L768 309.028571c8.045714-38.034286-14.628571-55.222857-36.571429-43.885714z" fill="#696cff" p-id="2792"></path></svg>